{
    "asset" : {
        "generator" : "Khronos glTF Blender I/O v3.4.50",
        "version" : "2.0"
    },
    "scene" : 0,
    "scenes" : [
        {
            "name" : "Scene",
            "nodes" : [
                0,
                1,
                2,
                3,
                4,
                5
            ]
        }
    ],
    "nodes" : [
        {
            "mesh" : 0,
            "name" : "Can-main",
            "scale" : [
                -1.3238749504089355,
                -2.472595453262329,
                -1.3238749504089355
            ],
            "translation" : [
                0.0003373195941094309,
                3.4711878299713135,
                -0.28922194242477417
            ]
        },
        {
            "mesh" : 1,
            "name" : "Can-top",
            "translation" : [
                -0.004044370260089636,
                5.857301712036133,
                -0.2896293103694916
            ]
        },
        {
            "mesh" : 2,
            "name" : "Can-label",
            "scale" : [
                -1.3238749504089355,
                -2.472595453262329,
                -1.3238749504089355
            ],
            "translation" : [
                0.0003373195941094309,
                3.4711878299713135,
                -0.28922194242477417
            ]
        },
        {
            "mesh" : 3,
            "name" : "Object",
            "scale" : [
                0.6796750426292419,
                0.6796750426292419,
                0.6796750426292419
            ],
            "translation" : [
                -11.602287292480469,
                2.2163074016571045,
                -1.7513806819915771
            ]
        },
        {
            "mesh" : 4,
            "name" : "Plane",
            "translation" : [
                -8.343936920166016,
                0,
                -3.5177299976348877
            ]
        },
        {
            "mesh" : 5,
            "name" : "Can-upper",
            "scale" : [
                -1.3238749504089355,
                -2.472595453262329,
                -1.3238749504089355
            ],
            "translation" : [
                0.0003373195941094309,
                3.4711878299713135,
                -0.28922194242477417
            ]
        }
    ],
    "materials" : [
        {
            "doubleSided" : true,
            "name" : "Material.002",
            "pbrMetallicRoughness" : {
                "baseColorFactor" : [
                    0.4958452582359314,
                    0.4958452582359314,
                    0.4958452582359314,
                    1
                ],
                "metallicFactor" : 0.5,
                "roughnessFactor" : 0.08709678053855896
            }
        },
        {
            "doubleSided" : true,
            "name" : "Material.001",
            "pbrMetallicRoughness" : {
                "baseColorFactor" : [
                    0,
                    0,
                    1,
                    1
                ],
                "metallicFactor" : 0.6499999761581421,
                "roughnessFactor" : 0.20000000298023224
            }
        }
    ],
    "meshes" : [
        {
            "name" : "Cylinder.001",
            "primitives" : [
                {
                    "attributes" : {
                        "POSITION" : 0,
                        "TEXCOORD_0" : 1,
                        "NORMAL" : 2
                    },
                    "indices" : 3,
                    "material" : 0
                }
            ]
        },
        {
            "name" : "Plane.001",
            "primitives" : [
                {
                    "attributes" : {
                        "POSITION" : 4,
                        "TEXCOORD_0" : 5,
                        "NORMAL" : 6
                    },
                    "indices" : 7,
                    "material" : 0
                }
            ]
        },
        {
            "name" : "Cylinder.002",
            "primitives" : [
                {
                    "attributes" : {
                        "POSITION" : 8,
                        "TEXCOORD_0" : 9,
                        "NORMAL" : 10
                    },
                    "indices" : 11,
                    "material" : 1
                }
            ]
        },
        {
            "name" : "Text",
            "primitives" : [
                {
                    "attributes" : {
                        "POSITION" : 12,
                        "TEXCOORD_0" : 13,
                        "NORMAL" : 14
                    },
                    "indices" : 15
                }
            ]
        },
        {
            "name" : "Plane.002",
            "primitives" : [
                {
                    "attributes" : {
                        "POSITION" : 16,
                        "TEXCOORD_0" : 17,
                        "NORMAL" : 18
                    },
                    "indices" : 19
                }
            ]
        },
        {
            "name" : "Cylinder.003",
            "primitives" : [
                {
                    "attributes" : {
                        "POSITION" : 20,
                        "TEXCOORD_0" : 21,
                        "NORMAL" : 22
                    },
                    "indices" : 23,
                    "material" : 1
                }
            ]
        }
    ],
    "accessors" : [
        {
            "bufferView" : 0,
            "componentType" : 5126,
            "count" : 989,
            "max" : [
                0.9935551881790161,
                0.9361477494239807,
                0.987270176410675
            ],
            "min" : [
                -1.0064446926116943,
                -1.007634162902832,
                -1.0127297639846802
            ],
            "type" : "VEC3"
        },
        {
            "bufferView" : 1,
            "componentType" : 5126,
            "count" : 989,
            "type" : "VEC2"
        },
        {
            "bufferView" : 2,
            "componentType" : 5126,
            "count" : 989,
            "type" : "VEC3"
        },
        {
            "bufferView" : 3,
            "componentType" : 5123,
            "count" : 5274,
            "type" : "SCALAR"
        },
        {
            "bufferView" : 4,
            "componentType" : 5126,
            "count" : 510,
            "max" : [
                0.28713494539260864,
                0.07325928658246994,
                0.26720234751701355
            ],
            "min" : [
                -0.2890694737434387,
                0.047322168946266174,
                -0.6073516607284546
            ],
            "type" : "VEC3"
        },
        {
            "bufferView" : 5,
            "componentType" : 5126,
            "count" : 510,
            "type" : "VEC2"
        },
        {
            "bufferView" : 6,
            "componentType" : 5126,
            "count" : 510,
            "type" : "VEC3"
        },
        {
            "bufferView" : 7,
            "componentType" : 5123,
            "count" : 804,
            "type" : "SCALAR"
        },
        {
            "bufferView" : 8,
            "componentType" : 5126,
            "count" : 66,
            "max" : [
                1,
                0.8294638991355896,
                1
            ],
            "min" : [
                -1.0064446926116943,
                -0.7042526006698608,
                -1.0127297639846802
            ],
            "type" : "VEC3"
        },
        {
            "bufferView" : 9,
            "componentType" : 5126,
            "count" : 66,
            "type" : "VEC2"
        },
        {
            "bufferView" : 10,
            "componentType" : 5126,
            "count" : 66,
            "type" : "VEC3"
        },
        {
            "bufferView" : 11,
            "componentType" : 5123,
            "count" : 192,
            "type" : "SCALAR"
        },
        {
            "bufferView" : 12,
            "componentType" : 5126,
            "count" : 2081,
            "max" : [
                6.586331367492676,
                0,
                1.1833031177520752
            ],
            "min" : [
                0.02722323127090931,
                0,
                -0.6433756947517395
            ],
            "type" : "VEC3"
        },
        {
            "bufferView" : 13,
            "componentType" : 5126,
            "count" : 2081,
            "type" : "VEC2"
        },
        {
            "bufferView" : 14,
            "componentType" : 5126,
            "count" : 2081,
            "type" : "VEC3"
        },
        {
            "bufferView" : 15,
            "componentType" : 5123,
            "count" : 4725,
            "type" : "SCALAR"
        },
        {
            "bufferView" : 16,
            "componentType" : 5126,
            "count" : 12,
            "max" : [
                1.428614616394043,
                2.1993541717529297,
                2.696408987045288
            ],
            "min" : [
                -3.3974227905273438,
                2.1993062496185303,
                1.191369652748108
            ],
            "type" : "VEC3"
        },
        {
            "bufferView" : 17,
            "componentType" : 5126,
            "count" : 12,
            "type" : "VEC2"
        },
        {
            "bufferView" : 18,
            "componentType" : 5126,
            "count" : 12,
            "type" : "VEC3"
        },
        {
            "bufferView" : 19,
            "componentType" : 5123,
            "count" : 30,
            "type" : "SCALAR"
        },
        {
            "bufferView" : 20,
            "componentType" : 5126,
            "count" : 198,
            "max" : [
                1,
                -0.7042526006698608,
                1
            ],
            "min" : [
                -1,
                -0.9525074362754822,
                -1
            ],
            "type" : "VEC3"
        },
        {
            "bufferView" : 21,
            "componentType" : 5126,
            "count" : 198,
            "type" : "VEC2"
        },
        {
            "bufferView" : 22,
            "componentType" : 5126,
            "count" : 198,
            "type" : "VEC3"
        },
        {
            "bufferView" : 23,
            "componentType" : 5123,
            "count" : 960,
            "type" : "SCALAR"
        }
    ],
    "bufferViews" : [
        {
            "buffer" : 0,
            "byteLength" : 11868,
            "byteOffset" : 0,
            "target" : 34962
        },
        {
            "buffer" : 0,
            "byteLength" : 7912,
            "byteOffset" : 11868,
            "target" : 34962
        },
        {
            "buffer" : 0,
            "byteLength" : 11868,
            "byteOffset" : 19780,
            "target" : 34962
        },
        {
            "buffer" : 0,
            "byteLength" : 10548,
            "byteOffset" : 31648,
            "target" : 34963
        },
        {
            "buffer" : 0,
            "byteLength" : 6120,
            "byteOffset" : 42196,
            "target" : 34962
        },
        {
            "buffer" : 0,
            "byteLength" : 4080,
            "byteOffset" : 48316,
            "target" : 34962
        },
        {
            "buffer" : 0,
            "byteLength" : 6120,
            "byteOffset" : 52396,
            "target" : 34962
        },
        {
            "buffer" : 0,
            "byteLength" : 1608,
            "byteOffset" : 58516,
            "target" : 34963
        },
        {
            "buffer" : 0,
            "byteLength" : 792,
            "byteOffset" : 60124,
            "target" : 34962
        },
        {
            "buffer" : 0,
            "byteLength" : 528,
            "byteOffset" : 60916,
            "target" : 34962
        },
        {
            "buffer" : 0,
            "byteLength" : 792,
            "byteOffset" : 61444,
            "target" : 34962
        },
        {
            "buffer" : 0,
            "byteLength" : 384,
            "byteOffset" : 62236,
            "target" : 34963
        },
        {
            "buffer" : 0,
            "byteLength" : 24972,
            "byteOffset" : 62620,
            "target" : 34962
        },
        {
            "buffer" : 0,
            "byteLength" : 16648,
            "byteOffset" : 87592,
            "target" : 34962
        },
        {
            "buffer" : 0,
            "byteLength" : 24972,
            "byteOffset" : 104240,
            "target" : 34962
        },
        {
            "buffer" : 0,
            "byteLength" : 9450,
            "byteOffset" : 129212,
            "target" : 34963
        },
        {
            "buffer" : 0,
            "byteLength" : 144,
            "byteOffset" : 138664,
            "target" : 34962
        },
        {
            "buffer" : 0,
            "byteLength" : 96,
            "byteOffset" : 138808,
            "target" : 34962
        },
        {
            "buffer" : 0,
            "byteLength" : 144,
            "byteOffset" : 138904,
            "target" : 34962
        },
        {
            "buffer" : 0,
            "byteLength" : 60,
            "byteOffset" : 139048,
            "target" : 34963
        },
        {
            "buffer" : 0,
            "byteLength" : 2376,
            "byteOffset" : 139108,
            "target" : 34962
        },
        {
            "buffer" : 0,
            "byteLength" : 1584,
            "byteOffset" : 141484,
            "target" : 34962
        },
        {
            "buffer" : 0,
            "byteLength" : 2376,
            "byteOffset" : 143068,
            "target" : 34962
        },
        {
            "buffer" : 0,
            "byteLength" : 1920,
            "byteOffset" : 145444,
            "target" : 34963
        }
    ],
    "buffers" : [
        {
            "byteLength" : 147364,
            "uri" : "data:application/octet-stream;base64,"
        }
    ]
}
