{
    "asset" : {
        "generator" : "Khronos glTF Blender I/O v3.4.50",
        "version" : "2.0"
    },
    "scene" : 0,
    "scenes" : [
        {
            "name" : "Scene",
            "nodes" : [
                0
            ]
        }
    ],
    "nodes" : [
        {
            "mesh" : 0,
            "name" : "Can-label",
            "scale" : [
                -1.3238749504089355,
                -2.472595453262329,
                -1.3238749504089355
            ],
            "translation" : [
                0.0003373195941094309,
                3.4711878299713135,
                -0.28922194242477417
            ]
        }
    ],
    "materials" : [
        {
            "doubleSided" : true,
            "name" : "Material.003",
            "pbrMetallicRoughness" : {
                "baseColorTexture" : {
                    "index" : 0
                },
                "metallicFactor" : 0.699999988079071,
                "roughnessFactor" : 0.20000000298023224
            }
        },
        {
            "doubleSided" : true,
            "name" : "Material.002",
            "pbrMetallicRoughness" : {
                "baseColorFactor" : [
                    0.4958452582359314,
                    0.4958452582359314,
                    0.4958452582359314,
                    1
                ],
                "metallicFactor" : 0.5,
                "roughnessFactor" : 0.08709678053855896
            }
        },
        {
            "doubleSided" : true,
            "name" : "Material.001",
            "pbrMetallicRoughness" : {
                "baseColorFactor" : [
                    0,
                    0,
                    1,
                    1
                ],
                "metallicFactor" : 0.6499999761581421,
                "roughnessFactor" : 0.20000000298023224
            }
        }
    ],
    "meshes" : [
        {
            "name" : "Cylinder.002",
            "primitives" : [
                {
                    "attributes" : {
                        "POSITION" : 0,
                        "TEXCOORD_0" : 1,
                        "NORMAL" : 2
                    },
                    "indices" : 3,
                    "material" : 0
                },
                {
                    "attributes" : {
                        "POSITION" : 4,
                        "TEXCOORD_0" : 5,
                        "NORMAL" : 6
                    },
                    "indices" : 7,
                    "material" : 1
                },
                {
                    "attributes" : {
                        "POSITION" : 8,
                        "TEXCOORD_0" : 9,
                        "NORMAL" : 10
                    },
                    "indices" : 11,
                    "material" : 2
                }
            ]
        }
    ],
    "textures" : [
        {
            "sampler" : 0,
            "source" : 0
        }
    ],
    "images" : [
        {
            "bufferView" : 4,
            "mimeType" : "image/png",
            "name" : "label20"
        }
    ],
    "accessors" : [
        {
            "bufferView" : 0,
            "componentType" : 5126,
            "count" : 66,
            "max" : [
                1,
                0.8294638991355896,
                1
            ],
            "min" : [
                -1.0064446926116943,
                -0.7042526006698608,
                -1.0127297639846802
            ],
            "type" : "VEC3"
        },
        {
            "bufferView" : 1,
            "componentType" : 5126,
            "count" : 66,
            "type" : "VEC2"
        },
        {
            "bufferView" : 2,
            "componentType" : 5126,
            "count" : 66,
            "type" : "VEC3"
        },
        {
            "bufferView" : 3,
            "componentType" : 5123,
            "count" : 192,
            "type" : "SCALAR"
        },
        {
            "bufferView" : 5,
            "componentType" : 5126,
            "count" : 1489,
            "max" : [
                0.9935551881790161,
                0.9361476302146912,
                0.987270176410675
            ],
            "min" : [
                -1.0064446926116943,
                -1.0076342821121216,
                -1.0127297639846802
            ],
            "type" : "VEC3"
        },
        {
            "bufferView" : 6,
            "componentType" : 5126,
            "count" : 1489,
            "type" : "VEC2"
        },
        {
            "bufferView" : 7,
            "componentType" : 5126,
            "count" : 1489,
            "type" : "VEC3"
        },
        {
            "bufferView" : 8,
            "componentType" : 5123,
            "count" : 6078,
            "type" : "SCALAR"
        },
        {
            "bufferView" : 9,
            "componentType" : 5126,
            "count" : 198,
            "max" : [
                1,
                -0.7042528390884399,
                1
            ],
            "min" : [
                -1,
                -0.9525076746940613,
                -1
            ],
            "type" : "VEC3"
        },
        {
            "bufferView" : 10,
            "componentType" : 5126,
            "count" : 198,
            "type" : "VEC2"
        },
        {
            "bufferView" : 11,
            "componentType" : 5126,
            "count" : 198,
            "type" : "VEC3"
        },
        {
            "bufferView" : 12,
            "componentType" : 5123,
            "count" : 960,
            "type" : "SCALAR"
        }
    ],
    "bufferViews" : [
        {
            "buffer" : 0,
            "byteLength" : 792,
            "byteOffset" : 0,
            "target" : 34962
        },
        {
            "buffer" : 0,
            "byteLength" : 528,
            "byteOffset" : 792,
            "target" : 34962
        },
        {
            "buffer" : 0,
            "byteLength" : 792,
            "byteOffset" : 1320,
            "target" : 34962
        },
        {
            "buffer" : 0,
            "byteLength" : 384,
            "byteOffset" : 2112,
            "target" : 34963
        },
        {
            "buffer" : 0,
            "byteLength" : 1085205,
            "byteOffset" : 2496
        },
        {
            "buffer" : 0,
            "byteLength" : 17868,
            "byteOffset" : 1087704,
            "target" : 34962
        },
        {
            "buffer" : 0,
            "byteLength" : 11912,
            "byteOffset" : 1105572,
            "target" : 34962
        },
        {
            "buffer" : 0,
            "byteLength" : 17868,
            "byteOffset" : 1117484,
            "target" : 34962
        },
        {
            "buffer" : 0,
            "byteLength" : 12156,
            "byteOffset" : 1135352,
            "target" : 34963
        },
        {
            "buffer" : 0,
            "byteLength" : 2376,
            "byteOffset" : 1147508,
            "target" : 34962
        },
        {
            "buffer" : 0,
            "byteLength" : 1584,
            "byteOffset" : 1149884,
            "target" : 34962
        },
        {
            "buffer" : 0,
            "byteLength" : 2376,
            "byteOffset" : 1151468,
            "target" : 34962
        },
        {
            "buffer" : 0,
            "byteLength" : 1920,
            "byteOffset" : 1153844,
            "target" : 34963
        }
    ],
    "samplers" : [
        {
            "magFilter" : 9729,
            "minFilter" : 9987
        }
    ],
    "buffers" : [
        {
            "byteLength" : 1155764,
            "uri" : "data:application/octet-stream;base64,"
        }
    ]
}
